<mxfile host="www.draw.io" modified="2020-03-02T15:57:47.036Z" agent="Mozilla/5.0 (Windows NT 10.0; Win64; x64) AppleWebKit/537.36 (KHTML, like Gecko) Chrome/80.0.3987.122 Safari/537.36" etag="gds3YDjQC0plLDlkMWgL" version="12.7.9" type="github">
  <diagram id="C5RBs43oDa-KdzZeNtuy" name="Page-1">
    <mxGraphModel dx="1038" dy="580" grid="1" gridSize="10" guides="1" tooltips="1" connect="1" arrows="1" fold="1" page="1" pageScale="1" pageWidth="2336" pageHeight="1654" background="#FFFFFF" math="0" shadow="0">
      <root>
        <mxCell id="WIyWlLk6GJQsqaUBKTNV-0" />
        <mxCell id="WIyWlLk6GJQsqaUBKTNV-1" parent="WIyWlLk6GJQsqaUBKTNV-0" />
        <mxCell id="nPfyasEDO4D0fScPUCsC-0" value="START" style="ellipse;whiteSpace=wrap;html=1;" parent="WIyWlLk6GJQsqaUBKTNV-1" vertex="1">
          <mxGeometry x="200" y="70" width="120" height="80" as="geometry" />
        </mxCell>
        <mxCell id="nPfyasEDO4D0fScPUCsC-1" value="" style="endArrow=classic;html=1;" parent="WIyWlLk6GJQsqaUBKTNV-1" edge="1">
          <mxGeometry width="50" height="50" relative="1" as="geometry">
            <mxPoint x="260" y="150" as="sourcePoint" />
            <mxPoint x="260" y="200" as="targetPoint" />
            <Array as="points" />
          </mxGeometry>
        </mxCell>
        <mxCell id="nPfyasEDO4D0fScPUCsC-4" value="STEPPER MOTOR ON" style="rounded=0;whiteSpace=wrap;html=1;" parent="WIyWlLk6GJQsqaUBKTNV-1" vertex="1">
          <mxGeometry x="100" y="200" width="300" height="30" as="geometry" />
        </mxCell>
        <mxCell id="nPfyasEDO4D0fScPUCsC-9" value="" style="endArrow=classic;html=1;exitX=0.53;exitY=1.067;exitDx=0;exitDy=0;exitPerimeter=0;" parent="WIyWlLk6GJQsqaUBKTNV-1" source="nPfyasEDO4D0fScPUCsC-4" edge="1">
          <mxGeometry width="50" height="50" relative="1" as="geometry">
            <mxPoint x="300" y="260" as="sourcePoint" />
            <mxPoint x="259" y="280" as="targetPoint" />
          </mxGeometry>
        </mxCell>
        <mxCell id="nPfyasEDO4D0fScPUCsC-14" value="container having different material(small container)valves open" style="rounded=0;whiteSpace=wrap;html=1;" parent="WIyWlLk6GJQsqaUBKTNV-1" vertex="1">
          <mxGeometry x="110" y="280" width="300" height="60" as="geometry" />
        </mxCell>
        <mxCell id="nPfyasEDO4D0fScPUCsC-24" value="" style="edgeStyle=orthogonalEdgeStyle;rounded=0;orthogonalLoop=1;jettySize=auto;html=1;" parent="WIyWlLk6GJQsqaUBKTNV-1" source="nPfyasEDO4D0fScPUCsC-15" target="nPfyasEDO4D0fScPUCsC-23" edge="1">
          <mxGeometry relative="1" as="geometry" />
        </mxCell>
        <mxCell id="nPfyasEDO4D0fScPUCsC-15" value="main container accepting the material from the small container." style="rounded=0;whiteSpace=wrap;html=1;" parent="WIyWlLk6GJQsqaUBKTNV-1" vertex="1">
          <mxGeometry x="100" y="390" width="300" height="50" as="geometry" />
        </mxCell>
        <mxCell id="nPfyasEDO4D0fScPUCsC-26" value="" style="edgeStyle=orthogonalEdgeStyle;rounded=0;orthogonalLoop=1;jettySize=auto;html=1;" parent="WIyWlLk6GJQsqaUBKTNV-1" source="nPfyasEDO4D0fScPUCsC-23" target="nPfyasEDO4D0fScPUCsC-25" edge="1">
          <mxGeometry relative="1" as="geometry" />
        </mxCell>
        <mxCell id="nPfyasEDO4D0fScPUCsC-23" value="DC Motor on" style="rounded=0;whiteSpace=wrap;html=1;" parent="WIyWlLk6GJQsqaUBKTNV-1" vertex="1">
          <mxGeometry x="100" y="520" width="300" height="50" as="geometry" />
        </mxCell>
        <mxCell id="nPfyasEDO4D0fScPUCsC-28" value="" style="edgeStyle=orthogonalEdgeStyle;rounded=0;orthogonalLoop=1;jettySize=auto;html=1;" parent="WIyWlLk6GJQsqaUBKTNV-1" source="nPfyasEDO4D0fScPUCsC-25" target="nPfyasEDO4D0fScPUCsC-27" edge="1">
          <mxGeometry relative="1" as="geometry" />
        </mxCell>
        <mxCell id="nPfyasEDO4D0fScPUCsC-25" value="Blades starts rotating&amp;nbsp;" style="rounded=0;whiteSpace=wrap;html=1;" parent="WIyWlLk6GJQsqaUBKTNV-1" vertex="1">
          <mxGeometry x="100" y="650" width="300" height="50" as="geometry" />
        </mxCell>
        <mxCell id="nPfyasEDO4D0fScPUCsC-30" value="" style="edgeStyle=orthogonalEdgeStyle;rounded=0;orthogonalLoop=1;jettySize=auto;html=1;" parent="WIyWlLk6GJQsqaUBKTNV-1" source="ciHrJYx42no_Hdfc9wMI-2" target="nPfyasEDO4D0fScPUCsC-29" edge="1">
          <mxGeometry relative="1" as="geometry" />
        </mxCell>
        <mxCell id="nPfyasEDO4D0fScPUCsC-27" value="Compost mixed" style="rounded=0;whiteSpace=wrap;html=1;" parent="WIyWlLk6GJQsqaUBKTNV-1" vertex="1">
          <mxGeometry x="100" y="780" width="300" height="50" as="geometry" />
        </mxCell>
        <mxCell id="nPfyasEDO4D0fScPUCsC-29" value="IR sensor sense the pot" style="rounded=0;whiteSpace=wrap;html=1;" parent="WIyWlLk6GJQsqaUBKTNV-1" vertex="1">
          <mxGeometry x="100" y="930" width="300" height="50" as="geometry" />
        </mxCell>
        <mxCell id="nPfyasEDO4D0fScPUCsC-17" style="edgeStyle=orthogonalEdgeStyle;rounded=0;orthogonalLoop=1;jettySize=auto;html=1;exitX=0.5;exitY=0;exitDx=0;exitDy=0;entryX=0.523;entryY=0;entryDx=0;entryDy=0;entryPerimeter=0;" parent="WIyWlLk6GJQsqaUBKTNV-1" source="nPfyasEDO4D0fScPUCsC-15" target="nPfyasEDO4D0fScPUCsC-15" edge="1">
          <mxGeometry relative="1" as="geometry" />
        </mxCell>
        <mxCell id="nPfyasEDO4D0fScPUCsC-20" value="" style="endArrow=classic;html=1;" parent="WIyWlLk6GJQsqaUBKTNV-1" edge="1">
          <mxGeometry width="50" height="50" relative="1" as="geometry">
            <mxPoint x="260.5" y="330" as="sourcePoint" />
            <mxPoint x="259.5" y="390" as="targetPoint" />
            <Array as="points">
              <mxPoint x="259.5" y="380" />
              <mxPoint x="260" y="370" />
            </Array>
          </mxGeometry>
        </mxCell>
        <mxCell id="nPfyasEDO4D0fScPUCsC-33" value="" style="endArrow=classic;html=1;" parent="WIyWlLk6GJQsqaUBKTNV-1" edge="1">
          <mxGeometry width="50" height="50" relative="1" as="geometry">
            <mxPoint x="249.5" y="960" as="sourcePoint" />
            <mxPoint x="249.5" y="1010" as="targetPoint" />
          </mxGeometry>
        </mxCell>
        <mxCell id="nPfyasEDO4D0fScPUCsC-34" value="" style="endArrow=none;html=1;" parent="WIyWlLk6GJQsqaUBKTNV-1" edge="1">
          <mxGeometry width="50" height="50" relative="1" as="geometry">
            <mxPoint x="130" y="1011" as="sourcePoint" />
            <mxPoint x="370" y="1011" as="targetPoint" />
          </mxGeometry>
        </mxCell>
        <mxCell id="nPfyasEDO4D0fScPUCsC-35" value="" style="endArrow=classic;html=1;" parent="WIyWlLk6GJQsqaUBKTNV-1" edge="1">
          <mxGeometry width="50" height="50" relative="1" as="geometry">
            <mxPoint x="130" y="1010" as="sourcePoint" />
            <mxPoint x="130" y="1060" as="targetPoint" />
          </mxGeometry>
        </mxCell>
        <mxCell id="nPfyasEDO4D0fScPUCsC-36" value="" style="endArrow=classic;html=1;" parent="WIyWlLk6GJQsqaUBKTNV-1" edge="1">
          <mxGeometry width="50" height="50" relative="1" as="geometry">
            <mxPoint x="370" y="1010" as="sourcePoint" />
            <mxPoint x="370" y="1050" as="targetPoint" />
          </mxGeometry>
        </mxCell>
        <mxCell id="nPfyasEDO4D0fScPUCsC-42" value="" style="edgeStyle=orthogonalEdgeStyle;rounded=0;orthogonalLoop=1;jettySize=auto;html=1;" parent="WIyWlLk6GJQsqaUBKTNV-1" source="nPfyasEDO4D0fScPUCsC-39" edge="1">
          <mxGeometry relative="1" as="geometry">
            <mxPoint x="130" y="1220" as="targetPoint" />
          </mxGeometry>
        </mxCell>
        <mxCell id="nPfyasEDO4D0fScPUCsC-39" value="When pot is present" style="rhombus;whiteSpace=wrap;html=1;" parent="WIyWlLk6GJQsqaUBKTNV-1" vertex="1">
          <mxGeometry x="90" y="1060" width="80" height="80" as="geometry" />
        </mxCell>
        <mxCell id="nPfyasEDO4D0fScPUCsC-51" value="" style="edgeStyle=orthogonalEdgeStyle;rounded=0;orthogonalLoop=1;jettySize=auto;html=1;" parent="WIyWlLk6GJQsqaUBKTNV-1" source="nPfyasEDO4D0fScPUCsC-40" edge="1">
          <mxGeometry relative="1" as="geometry">
            <mxPoint x="370" y="1210" as="targetPoint" />
          </mxGeometry>
        </mxCell>
        <mxCell id="nPfyasEDO4D0fScPUCsC-40" value="when pot is not present" style="rhombus;whiteSpace=wrap;html=1;" parent="WIyWlLk6GJQsqaUBKTNV-1" vertex="1">
          <mxGeometry x="330" y="1050" width="80" height="80" as="geometry" />
        </mxCell>
        <mxCell id="nPfyasEDO4D0fScPUCsC-45" value="" style="edgeStyle=orthogonalEdgeStyle;rounded=0;orthogonalLoop=1;jettySize=auto;html=1;" parent="WIyWlLk6GJQsqaUBKTNV-1" source="nPfyasEDO4D0fScPUCsC-43" target="nPfyasEDO4D0fScPUCsC-44" edge="1">
          <mxGeometry relative="1" as="geometry" />
        </mxCell>
        <mxCell id="nPfyasEDO4D0fScPUCsC-43" value="IR sensor sense the pot" style="rounded=0;whiteSpace=wrap;html=1;" parent="WIyWlLk6GJQsqaUBKTNV-1" vertex="1">
          <mxGeometry x="70" y="1220" width="120" height="60" as="geometry" />
        </mxCell>
        <mxCell id="nPfyasEDO4D0fScPUCsC-47" value="" style="edgeStyle=orthogonalEdgeStyle;rounded=0;orthogonalLoop=1;jettySize=auto;html=1;" parent="WIyWlLk6GJQsqaUBKTNV-1" source="nPfyasEDO4D0fScPUCsC-44" target="nPfyasEDO4D0fScPUCsC-46" edge="1">
          <mxGeometry relative="1" as="geometry" />
        </mxCell>
        <mxCell id="nPfyasEDO4D0fScPUCsC-44" value="DC motor on" style="rounded=0;whiteSpace=wrap;html=1;" parent="WIyWlLk6GJQsqaUBKTNV-1" vertex="1">
          <mxGeometry x="70" y="1320" width="120" height="60" as="geometry" />
        </mxCell>
        <mxCell id="nPfyasEDO4D0fScPUCsC-49" value="" style="edgeStyle=orthogonalEdgeStyle;rounded=0;orthogonalLoop=1;jettySize=auto;html=1;" parent="WIyWlLk6GJQsqaUBKTNV-1" source="nPfyasEDO4D0fScPUCsC-46" target="nPfyasEDO4D0fScPUCsC-48" edge="1">
          <mxGeometry relative="1" as="geometry" />
        </mxCell>
        <mxCell id="nPfyasEDO4D0fScPUCsC-46" value="Main mixer gate is open" style="rounded=0;whiteSpace=wrap;html=1;" parent="WIyWlLk6GJQsqaUBKTNV-1" vertex="1">
          <mxGeometry x="70" y="1460" width="120" height="60" as="geometry" />
        </mxCell>
        <mxCell id="nPfyasEDO4D0fScPUCsC-48" value="dispensing the compost in the pot" style="rounded=0;whiteSpace=wrap;html=1;" parent="WIyWlLk6GJQsqaUBKTNV-1" vertex="1">
          <mxGeometry x="70" y="1593" width="120" height="60" as="geometry" />
        </mxCell>
        <mxCell id="nPfyasEDO4D0fScPUCsC-52" value="if" style="text;html=1;align=center;verticalAlign=middle;resizable=0;points=[];autosize=1;" parent="WIyWlLk6GJQsqaUBKTNV-1" vertex="1">
          <mxGeometry x="180" y="991" width="20" height="20" as="geometry" />
        </mxCell>
        <mxCell id="nPfyasEDO4D0fScPUCsC-53" value="IR sensor does not sense the pot" style="rounded=0;whiteSpace=wrap;html=1;" parent="WIyWlLk6GJQsqaUBKTNV-1" vertex="1">
          <mxGeometry x="310" y="1210" width="120" height="60" as="geometry" />
        </mxCell>
        <mxCell id="ciHrJYx42no_Hdfc9wMI-2" value="roover moves forward in search of pot" style="rounded=0;whiteSpace=wrap;html=1;" parent="WIyWlLk6GJQsqaUBKTNV-1" vertex="1">
          <mxGeometry x="100" y="840" width="300" height="60" as="geometry" />
        </mxCell>
        <mxCell id="ciHrJYx42no_Hdfc9wMI-3" value="" style="edgeStyle=orthogonalEdgeStyle;rounded=0;orthogonalLoop=1;jettySize=auto;html=1;" parent="WIyWlLk6GJQsqaUBKTNV-1" source="nPfyasEDO4D0fScPUCsC-27" target="ciHrJYx42no_Hdfc9wMI-2" edge="1">
          <mxGeometry relative="1" as="geometry">
            <mxPoint x="250" y="830" as="sourcePoint" />
            <mxPoint x="250" y="910" as="targetPoint" />
          </mxGeometry>
        </mxCell>
        <mxCell id="ciHrJYx42no_Hdfc9wMI-4" value="else" style="text;html=1;align=center;verticalAlign=middle;resizable=0;points=[];autosize=1;" parent="WIyWlLk6GJQsqaUBKTNV-1" vertex="1">
          <mxGeometry x="290" y="991" width="40" height="20" as="geometry" />
        </mxCell>
        <mxCell id="ciHrJYx42no_Hdfc9wMI-5" value="" style="endArrow=classic;html=1;" parent="WIyWlLk6GJQsqaUBKTNV-1" edge="1">
          <mxGeometry width="50" height="50" relative="1" as="geometry">
            <mxPoint x="430" y="1240" as="sourcePoint" />
            <mxPoint x="500" y="1240" as="targetPoint" />
          </mxGeometry>
        </mxCell>
        <mxCell id="ciHrJYx42no_Hdfc9wMI-6" value="" style="endArrow=classic;html=1;" parent="WIyWlLk6GJQsqaUBKTNV-1" edge="1">
          <mxGeometry width="50" height="50" relative="1" as="geometry">
            <mxPoint x="490" y="1240" as="sourcePoint" />
            <mxPoint x="490" y="860" as="targetPoint" />
          </mxGeometry>
        </mxCell>
        <mxCell id="ciHrJYx42no_Hdfc9wMI-7" value="" style="endArrow=classic;html=1;entryX=1.003;entryY=0.387;entryDx=0;entryDy=0;entryPerimeter=0;" parent="WIyWlLk6GJQsqaUBKTNV-1" target="ciHrJYx42no_Hdfc9wMI-2" edge="1">
          <mxGeometry width="50" height="50" relative="1" as="geometry">
            <mxPoint x="490" y="863" as="sourcePoint" />
            <mxPoint x="480" y="830" as="targetPoint" />
          </mxGeometry>
        </mxCell>
        <mxCell id="Z_OWnU-zwLRkpq7kp73y-0" value="" style="endArrow=none;html=1;" parent="WIyWlLk6GJQsqaUBKTNV-1" edge="1">
          <mxGeometry width="50" height="50" relative="1" as="geometry">
            <mxPoint x="10" y="1620" as="sourcePoint" />
            <mxPoint x="70" y="1620" as="targetPoint" />
          </mxGeometry>
        </mxCell>
        <mxCell id="Z_OWnU-zwLRkpq7kp73y-1" value="" style="endArrow=none;html=1;" parent="WIyWlLk6GJQsqaUBKTNV-1" edge="1">
          <mxGeometry width="50" height="50" relative="1" as="geometry">
            <mxPoint x="10" y="1620" as="sourcePoint" />
            <mxPoint x="10" y="880" as="targetPoint" />
          </mxGeometry>
        </mxCell>
        <mxCell id="Z_OWnU-zwLRkpq7kp73y-2" value="" style="endArrow=classic;html=1;" parent="WIyWlLk6GJQsqaUBKTNV-1" edge="1">
          <mxGeometry width="50" height="50" relative="1" as="geometry">
            <mxPoint x="10" y="880" as="sourcePoint" />
            <mxPoint x="100" y="880" as="targetPoint" />
          </mxGeometry>
        </mxCell>
      </root>
    </mxGraphModel>
  </diagram>
</mxfile>
